HIERARCHY
ROOT Hips
{
	OFFSET 0.000000 0.000000 0.000000
	CHANNELS 6 Xposition Yposition Zposition Xrotation Yrotation Zrotation
	JOINT LeftUpLeg_virtual
	{
		OFFSET 0.000000 0.000000 0.000000
		CHANNELS 3 Xrotation Yrotation Zrotation
		JOINT LeftUpLeg
		{
			OFFSET 10.205400 -3.823500 0.155100
			CHANNELS 3 Xrotation Yrotation Zrotation
			JOINT LeftLeg
			{
				OFFSET 0.708757 -12.982077 0.567790
				CHANNELS 3 Xrotation Yrotation Zrotation
				JOINT LeftFoot
				{
					OFFSET -0.708756 -10.717838 -2.184338
					CHANNELS 3 Xrotation Yrotation Zrotation
					JOINT LeftToeBase
					{
						OFFSET 0.108149 -7.191104 7.560241
						CHANNELS 3 Xrotation Yrotation Zrotation
						JOINT LeftToe_End
						{
							OFFSET 0.070230 0.081724 4.490308
							CHANNELS 3 Xrotation Yrotation Zrotation
							End Site
							{
								OFFSET 0 0 0
							}
						}
					}
				}
			}
		}
	}
	JOINT RightUpLeg_virtual
	{
		OFFSET 0.000000 0.000000 0.000000
		CHANNELS 3 Xrotation Yrotation Zrotation
		JOINT RightUpLeg
		{
			OFFSET -10.205400 -3.823500 0.005500
			CHANNELS 3 Xrotation Yrotation Zrotation
			JOINT RightLeg
			{
				OFFSET -0.708756 -12.982134 0.610632
				CHANNELS 3 Xrotation Yrotation Zrotation
				JOINT RightFoot
				{
					OFFSET 0.708754 -10.717769 -1.945823
					CHANNELS 3 Xrotation Yrotation Zrotation
					JOINT RightToeBase
					{
						OFFSET -0.108140 -7.191069 7.372968
						CHANNELS 3 Xrotation Yrotation Zrotation
						JOINT RightToe_End
						{
							OFFSET -0.070227 0.081735 4.479403
							CHANNELS 3 Xrotation Yrotation Zrotation
							End Site
							{
								OFFSET 0 0 0
							}
						}
					}
				}
			}
		}
	}
	JOINT Spine_virtual
	{
		OFFSET 0.000000 0.000000 0.000000
		CHANNELS 3 Xrotation Yrotation Zrotation
		JOINT Spine
		{
			OFFSET 0.000000 6.876099 0.125700
			CHANNELS 3 Xrotation Yrotation Zrotation
			JOINT Spine1
			{
				OFFSET 0.000000 5.730043 0.104720
				CHANNELS 3 Xrotation Yrotation Zrotation
				JOINT Spine1_split
				{
					OFFSET 0.000000 5.730043 0.104720
					CHANNELS 3 Xrotation Yrotation Zrotation
					JOINT Spine2
					{
						OFFSET 0.000000 5.730043 0.104720
						CHANNELS 3 Xrotation Yrotation Zrotation
						JOINT Neck_virtual
						{
							OFFSET 0.000000 0.000000 0.000000
							CHANNELS 3 Xrotation Yrotation Zrotation
							JOINT Neck
							{
								OFFSET 0.000000 10.314075 0.188496
								CHANNELS 3 Xrotation Yrotation Zrotation
								JOINT Head
								{
									OFFSET 0.000000 7.643700 -2.377400
									CHANNELS 3 Xrotation Yrotation Zrotation
									JOINT HeadTop_End
									{
										OFFSET 0.000000 43.788605 -13.619600
										CHANNELS 3 Xrotation Yrotation Zrotation
										End Site
										{
											OFFSET 0 0 0
										}
									}
								}
							}
						}
						JOINT LeftShoulder_virtual
						{
							OFFSET 0.000000 0.000000 0.000000
							CHANNELS 3 Xrotation Yrotation Zrotation
							JOINT LeftShoulder
							{
								OFFSET 2.196100 4.412489 0.087492
								CHANNELS 3 Xrotation Yrotation Zrotation
								JOINT LeftShoulder_split
								{
									OFFSET 2.196100 4.412489 0.087492
									CHANNELS 3 Xrotation Yrotation Zrotation
									JOINT LeftArm
									{
										OFFSET 8.771219 -2.981674 -0.026999
										CHANNELS 3 Xrotation Yrotation Zrotation
										JOINT LeftForeArm
										{
											OFFSET 8.512804 0.000000 -0.000000
											CHANNELS 3 Xrotation Yrotation Zrotation
											JOINT LeftHand
											{
												OFFSET 18.484802 0.000000 -0.000000
												CHANNELS 3 Xrotation Yrotation Zrotation
												End Site
												{
													OFFSET 0 0 0
												}
											}
										}
									}
								}
							}
						}
						JOINT RightShoulder_virtual
						{
							OFFSET 0.000000 0.000000 0.000000
							CHANNELS 3 Xrotation Yrotation Zrotation
							JOINT RightShoulder
							{
								OFFSET -2.196100 4.412496 0.070690
								CHANNELS 3 Xrotation Yrotation Zrotation
								JOINT RightShoulder_split
								{
									OFFSET -2.196100 4.412496 0.070690
									CHANNELS 3 Xrotation Yrotation Zrotation
									JOINT RightArm
									{
										OFFSET -8.771282 -2.981682 -0.094208
										CHANNELS 3 Xrotation Yrotation Zrotation
										JOINT RightForeArm
										{
											OFFSET -8.494598 0.000000 0.000000
											CHANNELS 3 Xrotation Yrotation Zrotation
											JOINT RightHand
											{
												OFFSET -18.483803 0.000000 0.000001
												CHANNELS 3 Xrotation Yrotation Zrotation
												End Site
												{
													OFFSET 0 0 0
												}
											}
										}
									}
								}
							}
						}
					}
				}
			}
		}
	}
}
MOTION
Frames: 9
Frame Time: 0.03333333
-4.525396 21.273212 -0.779232 0.000000 0.000000 0.000000 -2.967512 -3.863319 -0.535796 -81.059305 -9.718172 3.111684 73.605083 -17.653126 -6.668615 15.443317 -2.847184 -0.520045 -3.834888 1.077984 1.527679 0.000000 0.000000 0.000000 -3.056753 1.646399 -0.347084 23.109218 1.618455 -10.216414 87.654775 4.230545 -2.134580 -73.896083 -14.493538 17.548334 -37.524530 0.467470 -1.625129 0.000000 0.000000 0.000000 -6.189214 3.299155 -1.443012 11.623192 1.550039 -1.518189 5.643078 0.919641 -3.418300 0.409466 -0.876496 0.139707 0.000000 0.000000 0.000000 5.210381 0.886099 -2.899441 1.554569 -3.275897 9.899190 13.303842 1.229458 -6.001799 0.000000 0.000000 0.000000 4.987198 0.642343 -2.264177 -7.429177 -39.274267 -6.481036 -0.998207 -4.987539 -2.924415 -37.738404 -14.636216 -33.023497 -92.963348 -55.457216 -88.030797 0.000000 0.000000 0.000000 4.858549 0.545743 -2.664508 -8.752356 30.398365 12.187669 -3.027729 -2.923927 5.060833 -47.626250 6.531975 38.902357 -130.154131 54.691162 128.317562 0.000000 0.000000 0.000000 
-4.578159 22.778120 -0.584423 0.000000 0.000000 0.000000 -1.035939 -2.286259 -0.043495 -75.680128 -9.907021 1.777896 62.400683 -18.495734 -5.363254 19.520491 -4.691005 -2.422176 -5.408417 0.880278 2.030226 0.000000 0.000000 0.000000 -1.022914 3.670458 0.034886 22.367486 -0.501084 -8.545099 79.054597 1.890422 -2.138376 -69.236371 -14.259645 18.010577 -34.641825 1.069287 -2.342753 0.000000 0.000000 0.000000 -4.066608 4.178729 -1.098471 10.621800 1.452727 -1.565195 3.582863 0.514826 -3.932098 1.249489 -0.700579 0.326180 0.000000 0.000000 0.000000 3.123001 0.446748 -3.037514 -5.237861 -3.572243 8.761224 13.179018 0.429554 -6.287484 0.000000 0.000000 0.000000 2.819580 0.356467 -2.568039 -6.657494 -34.614272 -5.845121 -0.564280 -6.419522 -1.544702 -27.844260 -13.284039 -23.822697 -110.748587 -62.252721 -108.995824 0.000000 0.000000 0.000000 2.735577 0.107924 -3.077409 -7.749603 25.604696 9.311009 -2.985569 -1.738382 3.776919 -38.603625 11.066991 35.023127 -148.077299 57.865076 148.005855 0.000000 0.000000 0.000000 
-4.660759 24.627441 -0.227283 0.000000 0.000000 0.000000 1.195740 -0.931491 0.109644 -69.836683 -10.050114 1.506672 48.653900 -18.671849 -4.951520 25.068652 -6.009900 -3.661293 -5.584931 0.638778 2.352592 0.000000 0.000000 0.000000 1.265140 4.712531 0.191446 21.670404 -2.511916 -7.012066 67.201200 -0.155306 -2.276759 -61.465385 -12.861500 18.495710 -33.278837 1.609693 -2.398530 0.000000 0.000000 0.000000 -1.440110 4.626894 -0.948812 9.007287 1.673202 -1.315265 1.360452 0.457219 -4.371157 1.415561 -0.944528 0.671886 0.000000 0.000000 0.000000 1.092963 0.194518 -3.115910 -14.575427 -4.072244 7.219023 12.778485 -0.331791 -6.956773 0.000000 0.000000 0.000000 0.626455 0.356418 -2.879765 -5.856337 -28.241519 -5.143881 -0.545734 -6.406311 0.195153 -20.647069 -9.068802 -15.874280 -118.736705 -71.636076 -120.435250 0.000000 0.000000 0.000000 0.711267 -0.057603 -3.474334 -7.097056 20.218345 6.326218 -3.117783 -0.031929 2.273018 -27.225988 12.365102 27.793993 -163.634079 63.602421 165.730019 0.000000 0.000000 0.000000 
-4.739005 26.621607 0.266930 0.000000 0.000000 0.000000 3.518187 -0.242082 -0.344573 -63.763006 -9.811682 2.575243 34.728858 -17.650770 -5.022243 29.452903 -6.139406 -3.876710 -4.446452 0.460357 2.210979 0.000000 0.000000 0.000000 3.614857 4.470502 -0.116150 20.958379 -4.205095 -5.470560 53.337412 -1.594961 -2.490917 -50.773915 -10.133840 18.730966 -33.826847 2.122265 -1.917201 0.000000 0.000000 0.000000 1.277738 4.511365 -1.248163 7.180779 2.236995 -0.781048 -0.673197 0.821876 -4.534654 1.469086 -1.239738 1.005309 0.000000 0.000000 0.000000 -0.746792 0.256657 -2.991390 -25.991154 -4.604261 5.390540 12.313458 -0.948640 -7.863822 0.000000 0.000000 0.000000 -1.230369 0.653619 -3.082078 -5.040316 -20.749816 -4.175261 -1.459239 -4.867746 1.323986 -16.865527 -3.204070 -9.730790 -55.550000 -84.734002 -61.180163 0.000000 0.000000 0.000000 -0.946957 0.153436 -3.655488 -6.882727 14.512465 3.556331 -3.363791 1.399302 1.011762 -15.006706 8.919790 19.246302 173.614407 74.700700 -168.856620 0.000000 0.000000 0.000000 
-4.788096 28.448053 0.811876 0.000000 0.000000 0.000000 5.525209 -0.663638 -1.264417 -58.019479 -9.102589 4.730071 23.871446 -16.145259 -4.778711 30.945596 -5.485844 -3.599578 -3.376904 0.333767 1.947709 0.000000 0.000000 0.000000 5.560945 3.646915 -1.029306 20.095661 -5.587234 -3.844379 40.398465 -2.350480 -2.639234 -38.436893 -6.418714 18.356198 -37.238779 2.720909 -1.306698 0.000000 0.000000 0.000000 3.552763 3.836745 -1.989112 5.659045 3.080230 -0.058180 -2.130203 1.524344 -4.278415 1.278559 -1.551966 0.888611 0.000000 0.000000 0.000000 -2.169938 0.627957 -2.586399 -38.128008 -4.834002 3.556008 12.114816 -1.455517 -8.844178 0.000000 0.000000 0.000000 -2.519267 1.255315 -3.000239 -4.375371 -13.132090 -2.773556 -3.229512 -2.720801 1.931980 -15.695491 3.733235 -5.290468 22.457423 -63.798154 12.009330 0.000000 0.000000 0.000000 -2.120824 0.752517 -3.435642 -7.094896 8.883037 1.209097 -3.487655 2.281641 0.290351 -4.543853 0.937108 11.769274 73.459675 78.970961 -65.570267 0.000000 0.000000 0.000000 
-4.795783 29.845184 1.409893 0.000000 0.000000 0.000000 6.751957 -1.992758 -2.512075 -53.455741 -8.242156 7.367913 18.342980 -15.261260 -3.996018 29.661818 -4.844649 -3.398699 -3.909189 0.208774 1.872598 0.000000 0.000000 0.000000 6.827223 2.585344 -2.373659 19.026841 -6.721528 -2.351123 31.447950 -2.293343 -2.485891 -25.986546 -2.360351 17.660617 -43.550249 3.328823 -0.893791 0.000000 0.000000 0.000000 4.788196 2.771377 -3.032378 4.878056 3.976362 0.692281 -2.883157 2.348862 -3.583643 1.469476 -1.732400 0.775686 0.000000 0.000000 0.000000 -2.966952 1.210774 -1.899185 -49.153531 -4.521093 1.975799 12.400733 -1.686454 -9.673056 0.000000 0.000000 0.000000 -3.098008 1.982655 -2.524891 -4.001805 -6.184334 -0.418889 -4.848789 -1.209742 1.700616 -16.010942 10.170327 -2.282099 28.595248 -36.323868 12.426236 0.000000 0.000000 0.000000 -2.727689 1.543190 -2.747714 -7.585822 3.754599 -0.615750 -3.796178 2.641940 0.213017 2.978232 -9.312858 6.734898 36.399349 58.456632 -24.875042 0.000000 0.000000 0.000000 
-4.740966 30.696934 1.952141 0.000000 0.000000 0.000000 7.028214 -3.638242 -3.813686 -50.687715 -7.576398 9.677809 18.658021 -15.367186 -2.867043 26.341707 -4.636723 -3.349705 -5.643563 0.115387 2.011515 0.000000 0.000000 0.000000 7.168442 1.706914 -3.917294 17.591512 -7.850009 -1.494369 28.305677 -1.277135 -1.965481 -15.091201 1.452005 17.148889 -50.563829 3.801747 -0.717004 0.000000 0.000000 0.000000 5.027817 1.565367 -4.142577 4.851633 4.734037 1.291885 -3.003511 3.118014 -2.603904 2.281375 -1.141611 0.487544 0.000000 0.000000 0.000000 -3.115523 1.887304 -1.044752 -57.328298 -3.669931 1.048674 13.262960 -1.438206 -10.232163 0.000000 0.000000 0.000000 -3.138556 2.748135 -1.661703 -4.145812 -0.398712 2.637460 -5.723753 -0.965480 1.254066 -16.400782 14.451821 -0.976897 32.330468 -15.799145 10.094102 0.000000 0.000000 0.000000 -2.861176 2.320867 -1.816872 -8.191007 -0.693077 -2.019503 -4.493896 2.134905 0.671659 7.458986 -19.404484 3.547434 28.872501 38.546272 -13.601927 0.000000 0.000000 0.000000 
-4.660635 31.011074 2.384150 0.000000 0.000000 0.000000 6.482753 -4.683437 -4.842479 -49.859380 -7.311464 11.102884 23.534370 -16.069121 -1.681716 22.067713 -4.791980 -3.206390 -6.890525 0.118197 2.058793 0.000000 0.000000 0.000000 6.502274 1.646545 -5.272454 16.025155 -9.110123 -1.550738 30.060660 0.314907 -1.368066 -7.221733 4.531388 16.608836 -55.784105 4.117462 -0.649398 0.000000 0.000000 0.000000 4.350355 0.705295 -5.028464 5.382024 5.195588 1.623024 -2.681463 3.685786 -1.568344 2.325905 -0.343541 0.402868 0.000000 0.000000 0.000000 -2.610820 2.498097 -0.249836 -61.796758 -2.507670 0.895642 14.520562 -0.673074 -10.513411 0.000000 0.000000 0.000000 -2.799715 3.432080 -0.567831 -4.802363 3.541771 6.131324 -5.432687 -1.340710 0.479330 -16.649051 16.567157 -0.428169 35.874168 -6.201218 8.405762 0.000000 0.000000 0.000000 -2.713931 2.891263 -0.851969 -8.837117 -4.170821 -3.158973 -5.390904 1.729734 1.069557 8.853062 -28.061103 0.960868 26.042511 25.808746 -7.416744 0.000000 0.000000 0.000000 
-4.554482 30.932266 2.725605 0.000000 0.000000 0.000000 5.377089 -4.400039 -5.430507 -50.290683 -7.384853 11.275044 29.806228 -16.617466 -0.830551 17.832495 -5.045397 -3.182617 -6.656897 0.290940 1.635983 0.000000 0.000000 0.000000 5.359202 2.047912 -6.001745 14.681186 -10.365810 -2.381097 34.253699 1.972253 -1.121372 -3.005647 6.389406 15.983676 -58.922300 4.240496 -0.637001 0.000000 0.000000 0.000000 3.044161 0.489970 -5.526324 6.101420 5.221353 1.634297 -2.211072 3.999241 -0.731294 2.035985 0.543408 0.626298 0.000000 0.000000 0.000000 -1.736295 2.961809 0.288931 -62.499892 -1.345901 1.472259 15.792369 0.508937 -10.460116 0.000000 0.000000 0.000000 -2.264762 3.879356 0.449202 -5.606123 5.252199 9.468026 -3.883726 -1.901449 -0.142703 -16.902954 16.908547 0.314767 39.051897 -5.009589 7.843626 0.000000 0.000000 0.000000 -2.318186 3.165256 -0.133719 -9.386255 -6.465418 -4.014629 -6.101718 1.497688 0.971275 7.960819 -34.171669 -1.416849 24.395484 20.146275 -3.331838 0.000000 0.000000 0.000000 
